<svg id="Graphic_elements" data-name="Graphic elements" xmlns="http://www.w3.org/2000/svg" viewBox="0 0 1200 1200"><defs><style>.cls-1{fill:#00080e;}</style></defs><g id="layer1"><g id="g4379"><g id="path39624-0"><path class="cls-1" d="M641.25,602.24a4.85,4.85,0,0,1-4.58-3.28c-5.55-16.14-31.91-37.61-41.6-44.53L386.4,409.73a4.85,4.85,0,1,1,5.53-8L600.66,546.5c1.58,1.12,37.5,27,45.18,49.31a4.87,4.87,0,0,1-4.59,6.43Z"/></g><g id="path39626-9"><path class="cls-1" d="M627.32,1150c-30.75,0-82-13.79-92.6-19.5-.14-.08-.27-.15-.4-.24L172.16,886.93l-.17-.12c-72.72-53.65-98.17-122.92-80.08-218l0-.15L146.88,423c29.79-141.72,44.69-163.31,95.47-194a4.85,4.85,0,1,1,5,8.3c-44.86,27.13-60.5,42.64-91,187.78L101.43,670.71c-17.27,90.9,7,157.08,76.24,208.23L539.53,1122c13,6.83,76.61,22.18,98.67,17.3a4.85,4.85,0,0,1,2.1,9.48A61.89,61.89,0,0,1,627.32,1150Z"/></g><g id="path39628-1"><path class="cls-1" d="M614,807a4.68,4.68,0,0,1-1-.12,4.83,4.83,0,0,1-3.7-5.77L631.5,699.57c5.84-31.42-2-53.29-25.33-70.9L565.4,598.32a4.86,4.86,0,0,1,5.8-7.79L612,620.91c26.35,19.87,35.57,45.45,29,80.51l0,.15L618.76,803.22A4.85,4.85,0,0,1,614,807Zm22.23-106.51h0Z"/></g><g id="path39630-0"><path class="cls-1" d="M604.51,852.1a4.68,4.68,0,0,1-1-.11,4.85,4.85,0,0,1-3.69-5.79l26.47-119.37c6.92-36.76-2.78-63.49-30.52-84.12a4.85,4.85,0,0,1,5.79-7.78c31.08,23.11,42,52.91,34.25,93.77l0,.15L609.24,848.3A4.85,4.85,0,0,1,604.51,852.1ZM631,727.8h0Z"/></g><g id="path39632-8"><path class="cls-1" d="M709.7,558.29c-44.13,0-92.23-11.57-106.09-22.25L314.85,335.78a4.85,4.85,0,0,1,5.52-8L609.24,528.14l.23.16c19.36,15.13,125,33,161.36,7a4.85,4.85,0,0,1,5.64,7.9C761.11,554.14,736.12,558.28,709.7,558.29Z"/></g><g id="path39634-2"><path class="cls-1" d="M701.29,632.19a4.86,4.86,0,0,1-4.45-6.78c6.1-14.13,18.48-35.74,55.44-60.13l.3-.18,218-121.83a4.85,4.85,0,1,1,4.74,8.47L757.47,573.48c-18,11.92-40.17,29-51.72,55.78A4.86,4.86,0,0,1,701.29,632.19Z"/></g><g id="path39636-2"><path class="cls-1" d="M809.29,523.68a4.85,4.85,0,0,1-2.32-9.11l243.68-132.26c10.58-5.75,21.49-25.82,21.61-39.77,0-5.58-1.55-9.33-4.76-11.14a3.73,3.73,0,0,1-.39-.25l-357-249.22-.16-.11C677.33,57,608.65,52.19,571.27,72.06L264.81,225.71a4.85,4.85,0,1,1-4.34-8.67L566.82,63.44C607.58,41.77,680,46.9,715.73,74l356.76,249c4.43,2.59,9.57,8.06,9.47,19.56-.15,17.73-12.87,40.71-26.68,48.21L811.6,523.09A4.84,4.84,0,0,1,809.29,523.68Z"/></g><g id="path39638-6"><path class="cls-1" d="M660.26,1140.78a4.85,4.85,0,0,1-2.53-9L930.37,965.64c29.11-17.73,68.83-80.07,74.5-104.83l96.89-425.25c0-.14.07-.27.11-.41,2.66-8.3,2.87-26.86.51-45.12-2.51-19.38-7.5-34.76-12.71-39.18a4.85,4.85,0,0,1,6.27-7.41c16.62,14.1,21.12,75.55,15.24,94.46L1014.32,863c-6.29,27.49-46.83,91.42-78.9,111L662.78,1140.07A4.81,4.81,0,0,1,660.26,1140.78Z"/></g><g id="path39640-8"><path class="cls-1" d="M1057,574.53a4.83,4.83,0,0,1-4.74-5.9l26.49-119.45,0-.14c5-19.65,3.8-34.28-3.28-40.14-6-4.94-14.5-2.17-19.15,0l-56.77,31.22a4.85,4.85,0,0,1-4.67-8.5l56.91-31.3.29-.14c11.38-5.32,22.16-4.86,29.57,1.28,10.23,8.45,12.54,26.19,6.53,49.93l-26.48,119.37A4.85,4.85,0,0,1,1057,574.53Z"/></g><g id="path39642-9"><path class="cls-1" d="M1067.62,525.84a4.43,4.43,0,0,1-1-.11,4.85,4.85,0,0,1-3.73-5.76l16.1-74.85,0-.14c4.23-17.2-.09-22.32-1.52-23.47-2.79-2.27-7.06-.78-9.4.34L957,480.25a4.85,4.85,0,0,1-4.52-8.59l111.14-58.44.15-.08c7.48-3.61,14.7-3.31,19.81.83,4.94,4,9.8,13,4.84,33.26L1072.36,522A4.85,4.85,0,0,1,1067.62,525.84Z"/></g><g id="path39644-7"><path class="cls-1" d="M1071.19,512.36a4.75,4.75,0,0,1-1-.1,4.85,4.85,0,0,1-3.77-5.73l10.37-50.29,0-.14c2.18-9.26.72-13.35-.5-14.3-.73-.59-2.23-.4-4,.48l-51.59,27.8a4.85,4.85,0,1,1-4.6-8.54l51.66-27.84.12-.06c5.34-2.69,10.61-2.49,14.45.54s7.37,9.47,3.94,24.08l-10.36,50.23A4.84,4.84,0,0,1,1071.19,512.36Z"/></g><g id="path39646-7"><path class="cls-1" d="M1072.86,506.43a4.73,4.73,0,0,1-.9-.09,4.85,4.85,0,0,1-3.87-5.66l5.64-30a17.65,17.65,0,0,0,.49-6.11l-24.54,14a4.85,4.85,0,1,1-4.82-8.42l25-14.29c3.59-2,7.35-1.91,10.14.16s5.41,6.48,3.25,16.55l-5.61,29.87A4.86,4.86,0,0,1,1072.86,506.43Z"/></g><g id="path39648-8"><path class="cls-1" d="M1070.59,511.84a5.45,5.45,0,0,1-.89-.08,4.86,4.86,0,0,1-3.88-5.66l2.74-14.73-2.16,1.42a4.85,4.85,0,1,1-5.31-8.12l6.52-4.27.3-.18a7.07,7.07,0,0,1,7.83.25c2,1.46,4,4.6,2.63,11.24l-3,16.17A4.86,4.86,0,0,1,1070.59,511.84Z"/></g><g id="path39650-9"><path class="cls-1" d="M965.2,278.54a4.8,4.8,0,0,1-2.79-.88L701.73,93.59c-42.69-24.43-94.58-22.88-121.79-9l-97,49.52a4.85,4.85,0,1,1-4.41-8.65l97-49.51C605.05,60.88,661.07,59,706.76,85.29a3,3,0,0,1,.38.24L968,269.73a4.85,4.85,0,0,1-2.8,8.81Z"/></g><g id="path39652-3"><path class="cls-1" d="M824.48,180a4.86,4.86,0,0,1-2.74-.85L689.92,88.72c-20.69-11.38-59.78-6.81-73.17,0l-83.36,42.53a4.85,4.85,0,0,1-4.41-8.64L612.34,80.1c14.72-7.51,58.29-13.25,82.49.26l.38.23,132,90.58a4.85,4.85,0,0,1-2.75,8.85Z"/></g><g id="path39654-0"><path class="cls-1" d="M796.73,159.22a4.77,4.77,0,0,1-2.69-.82L701.69,96.64c-13.72-7.32-41.08-6.11-50.46-1.46l-55.55,27.54a4.85,4.85,0,1,1-4.31-8.69l55.56-27.55c11.6-5.75,42.42-7.6,59.59,1.74l.37.23,92.54,61.89a4.85,4.85,0,0,1-2.7,8.88Z"/></g><g id="path39656-5"><path class="cls-1" d="M756.5,131.49a4.78,4.78,0,0,1-2.51-.71L708.83,103.3c-6.41-3-23.59-2.33-27-.61L649,119.56a4.85,4.85,0,0,1-4.43-8.63l32.91-16.88c6.55-3.36,27.28-3.6,35.85.64l.37.2L759,122.49a4.85,4.85,0,0,1-2.53,9Z"/></g><g id="path39658-6"><path class="cls-1" d="M694,118.68a4.85,4.85,0,0,1-2.14-9.21l13.83-6.77c5.28-2.58,14.71-2.94,22.53,1.37a4.85,4.85,0,1,1-4.68,8.49c-5.12-2.82-11.13-2.35-13.58-1.15l-13.83,6.77A4.78,4.78,0,0,1,694,118.68Z"/></g><g id="path39660-3"><path class="cls-1" d="M660.89,1116.68c-8.9,0-18.6-4-27.87-11.58-15.23-12.52-28.36-35.08-24-54l63.57-281.21a4.85,4.85,0,1,1,9.47,2.14l-63.58,281.23c-3,13.09,5.84,32.13,20.66,44.32,10.35,8.51,20.84,11.39,28.84,7.94L849.47,996.27a4.85,4.85,0,0,1,5,8.31L672.76,1114a4.11,4.11,0,0,1-.51.27A27.46,27.46,0,0,1,660.89,1116.68Z"/></g><g id="path39662-9"><path class="cls-1" d="M649.77,1101.64c-7,0-14.66-3.11-21.91-9.09-11.68-9.63-21.71-27-18.3-41.55l19-84.86a4.85,4.85,0,0,1,9.47,2.12l-19,84.91c-2.18,9.34,4.28,23,15,31.9,7.35,6,15,8.25,20.58,5.92l136.66-81.87a4.85,4.85,0,0,1,5,8.32l-136.92,82-.51.27A22,22,0,0,1,649.77,1101.64Z"/></g><g id="path39664-7"><path class="cls-1" d="M638.19,1085.23c-5.13,0-10.64-2.24-15.84-6.56-7.8-6.47-15-18.27-12.53-28.89l12.69-56A4.85,4.85,0,0,1,632,996l-12.7,56c-1.28,5.43,2.8,13.86,9.27,19.24,4.45,3.69,9,5.11,12.18,3.85l91-53.95a4.85,4.85,0,0,1,5,8.35l-91.3,54.11a3.06,3.06,0,0,1-.51.26A16.32,16.32,0,0,1,638.19,1085.23Z"/></g><g id="path39666-7"><path class="cls-1" d="M624.41,1071.55a14.69,14.69,0,0,1-9.34-3.82c-4.09-3.48-7.59-9.5-6.21-15.13l5.79-24.56a4.85,4.85,0,1,1,9.44,2.23l-5.8,24.6c-.25,1,.8,3.55,3.06,5.46a5,5,0,0,0,3.16,1.51l41.32-23.55a4.85,4.85,0,0,1,4.81,8.43l-41.7,23.77c-.17.09-.33.18-.5.25A10.29,10.29,0,0,1,624.41,1071.55Z"/></g><g id="path39668-4"><path class="cls-1" d="M619.64,1052.47a8.94,8.94,0,0,1-5.95-2.48,7.67,7.67,0,0,1-2.57-7.69l2-7.54a4.85,4.85,0,1,1,9.36,2.55l-1.17,4.29,11.74-5.79a4.85,4.85,0,1,1,4.29,8.7l-14.84,7.33-.47.2A7,7,0,0,1,619.64,1052.47Zm.84-7.64v.07S620.48,1044.86,620.48,1044.83Z"/></g><g id="path39670-3"><path class="cls-1" d="M622,1031.34a6.64,6.64,0,0,1-5.14-2.39,5.12,5.12,0,0,1-.63-5.42L617,1022a4.86,4.86,0,0,1,6.44-2.37,4.94,4.94,0,0,1,1.49,1.07l1.5-.43a4.85,4.85,0,0,1,2.7,9.32l-5.44,1.57-.32.08A5.8,5.8,0,0,1,622,1031.34Zm3.06-3.8-.06.12Z"/></g><g id="path39672-5"><path class="cls-1" d="M146.37,543.45a4.7,4.7,0,0,1-1.05-.12,4.84,4.84,0,0,1-3.69-5.78l26.16-118.26c13.23-57.07,47.84-76,67.29-82.13,32.72-10.39,70.64-1.16,99,24.08a4.85,4.85,0,0,1-6.46,7.24c-25.79-23-60.11-31.43-89.58-22.07-30.19,9.59-51.77,36.23-60.77,75L151.1,539.65A4.85,4.85,0,0,1,146.37,543.45Z"/></g><g id="path39674-8"><path class="cls-1" d="M298.61,316a4.84,4.84,0,0,1-3.53-1.53c-11.86-12.62-13.47-38.09-11.24-56.05,2.71-21.84,10.75-38.51,22-45.74a4.17,4.17,0,0,1,.46-.26l62.72-31.15a4.85,4.85,0,0,1,4.31,8.69L310.9,221c-8.49,5.6-15.16,20.36-17.43,38.62-2.52,20.27,1,40.1,8.68,48.21a4.86,4.86,0,0,1-3.54,8.18Z"/></g><g id="path39676-3"><path class="cls-1" d="M609.85,823.29a4.94,4.94,0,0,1-1.07-.12,4.84,4.84,0,0,1-3.67-5.79L635,683.7c7.54-39.78-11-86.36-44.14-110.79L322.61,385.19l-.27-.2c-34.42-27.75-59.08-26.67-68.08-24.92a4.85,4.85,0,1,1-1.85-9.52c10.32-2,38.36-3.41,75.89,26.78L596.52,565c36.09,26.62,56.24,77.29,48,120.56l0,.15L614.58,819.49A4.86,4.86,0,0,1,609.85,823.29Z"/></g><g id="path39678-3"><path class="cls-1" d="M582.86,1036a4.86,4.86,0,0,1-4.74-5.92l61.47-273.32a4.85,4.85,0,0,1,9.47,2.13l-61.47,273.32A4.85,4.85,0,0,1,582.86,1036Z"/></g><g id="path39680-3"><path class="cls-1" d="M696.08,701.24a5.49,5.49,0,0,1-.7,0,4.86,4.86,0,0,1-4.11-5.5c11.38-78.51,61.14-111.35,77.49-122.14l.31-.19,98.25-54.89a4.85,4.85,0,0,1,4.73,8.47L774,581.74c-15.61,10.3-62.37,41.38-73.09,115.34A4.85,4.85,0,0,1,696.08,701.24Z"/></g><g id="path39682-6"><path class="cls-1" d="M920.77,962.38a4.85,4.85,0,0,1-2-9.27c9.77-4.42,25.92-21.18,42.16-43.72,15.29-21.24,27.33-43,30-54.24a4.85,4.85,0,0,1,9.45,2.21c-5.86,25-51.45,92.77-77.55,104.59A4.9,4.9,0,0,1,920.77,962.38Z"/></g><g id="path39684-1"><path class="cls-1" d="M605.2,843.1a4.86,4.86,0,0,1-4.74-5.91l31.36-139.8c8.26-43.38-3.33-74.94-36.48-99.31L537.8,556.3a4.85,4.85,0,1,1,5.7-7.85l57.57,41.8c36.55,26.87,49.34,61.51,40.26,109a.8.8,0,0,1,0,.15L609.93,839.31A4.85,4.85,0,0,1,605.2,843.1Zm31.37-144.72h0Z"/></g><g id="path39686-0"><path class="cls-1" d="M615.51,797.49a4.89,4.89,0,0,1-4.78-5.7l11.18-63.63c2.85-19.11-.9-32.42-12.18-43a4.85,4.85,0,0,1,6.65-7.07c13.65,12.83,18.45,29.25,15.1,51.65l-11.19,63.75A4.86,4.86,0,0,1,615.51,797.49Z"/></g><g id="path39688-4"><path class="cls-1" d="M614.55,803.67a5.62,5.62,0,0,1-.7,0,4.85,4.85,0,0,1-4.11-5.49l6.85-47.89c1.71-14-.58-24.15-7.21-31.81a4.85,4.85,0,0,1,7.34-6.35c8.55,9.88,11.57,22.41,9.49,39.43l-6.87,48A4.85,4.85,0,0,1,614.55,803.67Z"/></g><g id="path39690-7"><path class="cls-1" d="M528.58,1098.18c-6.61,0-12.22-1.41-16.34-4.24l-35.7-24.54a4.85,4.85,0,0,1,5.49-8L517.74,1086c6.16,4.23,19.6,3.16,34.26-2.73,23.69-9.53,36.55-24.64,38.78-35.39l87.4-381.45a4.85,4.85,0,1,1,9.46,2.17L600.26,1049.9c-4.06,19.6-26.59,35.07-44.65,42.32C545.75,1096.18,536.46,1098.18,528.58,1098.18Z"/></g><g id="path39692-4"><path class="cls-1" d="M442.28,1046.22a4.87,4.87,0,0,1-2.69-.82L173.31,867.1l-.24-.16c-33.72-25.59-55.5-59.21-64.73-99.93-9.28-40.93-3-77.11,1.56-95l13.31-58.4a4.85,4.85,0,1,1,9.46,2.16l-13.34,58.52c-4.38,17.2-10.36,51.66-1.53,90.61,8.7,38.4,29.23,70.11,61,94.26L445,1037.34a4.85,4.85,0,0,1-2.71,8.88Z"/></g><g id="path39694-2"><path class="cls-1" d="M294,926.29a4.85,4.85,0,0,1-2.73-.85L157.31,834.31l-.16-.11c-51-37.78-60.74-107.91-48.25-157.07a4.85,4.85,0,1,1,9.41,2.39c-5.83,22.91-6,50.06-.49,74.48,6.91,30.58,22.48,55.6,45,72.35l133.84,91.07a4.86,4.86,0,0,1-2.73,8.87Z"/></g><g id="path39696-7"><path class="cls-1" d="M262.55,884.06a4.81,4.81,0,0,1-2.73-.85l-110.66-75.5-.16-.11c-42.42-31.53-50.56-90-40.17-131a4.85,4.85,0,1,1,9.4,2.39c-4.78,18.86-4.92,41.21-.4,61.31,4,17.54,13.56,42.07,36.88,59.45L265.28,875.2a4.85,4.85,0,0,1-2.73,8.86Z"/></g><g id="path39698-1"><path class="cls-1" d="M202.88,822.86a4.83,4.83,0,0,1-2.75-.86l-68.17-47-.16-.12c-26.8-20.11-32-57.31-25.43-83.36a4.85,4.85,0,0,1,9.41,2.36,83.64,83.64,0,0,0-.23,37.3c2.36,10.6,8.1,25.42,22,35.88L205.63,814a4.85,4.85,0,0,1-2.75,8.85Z"/></g><g id="path39700-5"><path class="cls-1" d="M171.83,782.63a4.8,4.8,0,0,1-2.77-.87l-45.73-31.88-.15-.11c-18.54-14.08-22.14-40-17.63-58.19a4.85,4.85,0,0,1,9.42,2.34c-6.17,24.83,6.42,42.26,14,48.06l45.64,31.82a4.85,4.85,0,0,1-2.78,8.83Z"/></g><g id="path39702-7"><path class="cls-1" d="M138,739.31a4.87,4.87,0,0,1-2.85-.93L115,723.71l-.15-.12c-9.05-7.19-10.84-20.27-8.68-29.38a4.85,4.85,0,0,1,9.44,2.24c-1.23,5.17-.85,14.61,5.2,19.48l20,14.61a4.85,4.85,0,0,1-2.86,8.77Z"/></g><g id="path39704-2"><path class="cls-1" d="M124.17,708.37a4.82,4.82,0,0,1-3-1.08l-8.6-6.93-.15-.13c-4.66-4.09-5.63-11.1-4.53-16.23a4.85,4.85,0,0,1,9.49,2c-.41,1.89-.24,5.34,1.38,6.85l8.5,6.85a4.85,4.85,0,0,1-3,8.63Z"/></g><g id="path39706-2"><path class="cls-1" d="M123.68,689.11a4.85,4.85,0,0,1-3.2-1.2L114.86,683l-.15-.14c-3.63-3.48-4.08-9-3.35-12.67a4.85,4.85,0,0,1,9.51,1.87,5.5,5.5,0,0,0,.51,3.74l5.5,4.83a4.85,4.85,0,0,1-3.2,8.5Z"/></g><g id="path39708-7"><path class="cls-1" d="M661.2,614.44a4.6,4.6,0,0,1-1.31-.18,4.85,4.85,0,0,1-3.36-6c2.62-9.37-3.5-18.89-8.42-26.53-4.19-6.53-7.82-12.17-4.49-17.12,3.6-5.34,12.38-5.53,37.56-.8a127.55,127.55,0,0,0,13,1.28c13.94.95,25,1.7,26.67,9,1.47,6.24-5.41,11.25-13.06,15.73a4.86,4.86,0,0,1-4.91-8.38,47.42,47.42,0,0,0,7.08-4.82c-3.87-1-11.49-1.53-16.44-1.87a134.06,134.06,0,0,1-14.13-1.42c-17.38-3.27-24.19-3.46-26.86-3.12a72.77,72.77,0,0,0,3.74,6.25c5.34,8.29,13.4,20.83,9.6,34.4A4.85,4.85,0,0,1,661.2,614.44Z"/></g><g id="path39710-0"><path class="cls-1" d="M183.6,362.52a4.83,4.83,0,0,1-4.74-5.9c10.45-46.87,27.27-79.28,51.42-99.1a4.85,4.85,0,0,1,6.15,7.5c-22.4,18.39-38.14,49-48.1,93.71A4.85,4.85,0,0,1,183.6,362.52Z"/></g><g id="path39712-3"><path class="cls-1" d="M213.07,322.47a4.87,4.87,0,0,1-4.53-6.59c12.66-33,37.23-53.57,50.63-57.64,4.41-1.34,8-1.08,10.64.79,6.69,4.73,7.05,11.65,7.47,19.66.43,8.17,1,18.34,7.54,32.06a4.85,4.85,0,1,1-8.75,4.2c-7.42-15.48-8-27.2-8.48-35.75-.38-7.39-.74-10.25-3.18-12.1-5.3-.86-33.23,16.88-46.81,52.25A4.86,4.86,0,0,1,213.07,322.47Z"/></g><g id="path39714-6"><path class="cls-1" d="M720.75,126.44a4.85,4.85,0,0,1-1.41-9.49l9-2.74a26.43,26.43,0,0,1,14.75.56A4.85,4.85,0,1,1,740,124a17.21,17.21,0,0,0-8.79-.46l-9,2.74A4.92,4.92,0,0,1,720.75,126.44Z"/></g><g id="path39716-0"><path class="cls-1" d="M679.47,552.41c-43,0-76.8-17.56-97.09-31.71a4.85,4.85,0,0,1,5.55-8c22.83,15.92,48.39,26,73.91,29,32.32,3.85,65.2-3.06,97.74-20.52l122.8-65.91a4.85,4.85,0,1,1,4.59,8.54l-122.8,65.92C733.37,546.29,704.83,552.41,679.47,552.41Z"/></g><g id="path39718-9"><path class="cls-1" d="M213.07,322.47a4.87,4.87,0,0,1-4.53-6.61c9.89-25.54,29.2-41.55,39.76-44.77,3.77-1.14,6.86-.89,9.21.74,5.62,3.94,5.9,9.21,6.19,14.8a52.79,52.79,0,0,0,5.65,22.77,4.85,4.85,0,0,1-8.74,4.22A62.63,62.63,0,0,1,254,287.14c-.25-4.6-.44-6-1.68-7.05-4.71.19-24.81,13.62-34.75,39.28A4.85,4.85,0,0,1,213.07,322.47Z"/></g><g id="path39720-8"><path class="cls-1" d="M213.07,322.47a4.81,4.81,0,0,1-1.78-.34,4.86,4.86,0,0,1-2.74-6.29c4.23-10.74,15.88-27.6,28.51-31.46,3.86-1.18,6.32-.29,7.72.67,4.59,3.16,4.63,7.15,4.66,10.35s.07,6.94,3.4,13.7a4.85,4.85,0,1,1-8.7,4.29c-4.31-8.74-4.36-14.25-4.4-17.89,0-.59,0-1.34-.06-1.82-4.31,1.3-16,10.25-22.1,25.71A4.85,4.85,0,0,1,213.07,322.47Z"/></g><g id="path39722-9"><path class="cls-1" d="M208.94,331.74a5,5,0,0,1-1.64-.28,4.85,4.85,0,0,1-2.92-6.21c3.87-10.77,15.67-24.36,21.32-26.26a5.7,5.7,0,0,1,5.06.52,6.54,6.54,0,0,1,3,7.39c-.14.73-.31,1.55,1,4a4.85,4.85,0,0,1-8.61,4.48,23.14,23.14,0,0,1-1.51-3.57c-3.83,4-8.91,10.52-11.13,16.69A4.85,4.85,0,0,1,208.94,331.74Z"/></g><g id="path39724-6"><path class="cls-1" d="M662.41,613.72a4.92,4.92,0,0,1-2.16-.51,4.86,4.86,0,0,1-2.18-6.51c1.24-2.5-.45-7-2-10.91-2-5.29-4.28-11.29-.42-15.94s11.95-5.37,28.66-2.34a4.85,4.85,0,0,1-1.74,9.55c-14.53-2.63-18.44-1.49-19.32-1,0,1.25,1.16,4.41,1.9,6.34,2.09,5.52,4.69,12.38,1.56,18.67A4.86,4.86,0,0,1,662.41,613.72Z"/></g><g id="path39726-4"><path class="cls-1" d="M659.14,635.11a4.91,4.91,0,0,1-1.45-.22,4.86,4.86,0,0,1-3.18-6.08,61.28,61.28,0,0,0,2.3-25.5c-.43-5-.8-9.29,2.64-12.07s8.53-2,17.77.83a4.85,4.85,0,0,1-2.84,9.28,60.71,60.71,0,0,0-8.13-2.08c0,1,.14,2.15.23,3.2a71,71,0,0,1-2.71,29.23A4.85,4.85,0,0,1,659.14,635.11Z"/></g><g id="path39728-0"><path class="cls-1" d="M614.84,1130.87c-12.9,0-61.7-5.8-67.4-19.65-1.4-3.41-.5-7,2.48-9.89a4.83,4.83,0,0,1,2.89-1.34c19.87-2,40.54-23.07,40.75-23.29a4.85,4.85,0,0,1,7,6.76c-.89.91-20.79,21.21-42.59,25.56,7.71,5.37,39.41,12.35,57.22,12.14h.06a4.86,4.86,0,0,1,0,9.71Z"/></g><g id="path39730-2"><path class="cls-1" d="M601.59,1113.91a112.83,112.83,0,0,1-17.26-1.75c-11.44-2-14.36-4.33-15.38-7.39a6,6,0,0,1,2.43-6.8,4.86,4.86,0,0,1,6.78,1,5,5,0,0,1,.85,2c4.81,1.56,16.25,3.25,22.81,3.2h0a4.86,4.86,0,0,1,0,9.71Zm-24.48-8.11Z"/></g><g id="path39732-9"><path class="cls-1" d="M599.62,1099.33c-2.28,0-6-.1-9-.24-6.22-.3-10-.48-10.4-5a5,5,0,0,1,4.32-5.37,4.83,4.83,0,0,1,3.08.44c2.71.22,8.61.42,12.11.44h0a4.85,4.85,0,0,1,0,9.7Z"/></g><g id="path39734-0"><path class="cls-1" d="M1090.72,400.22h-.37a4.86,4.86,0,0,1-4.47-5.21,43.47,43.47,0,0,0-.41-9.79,38.78,38.78,0,0,1-4,4.54,4.85,4.85,0,0,1-6.83-6.89c5.48-5.43,5.81-8.49,6-14.35a4.85,4.85,0,0,1,9.3-1.79c1.64,3.76,6.63,15.19,5.6,29A4.86,4.86,0,0,1,1090.72,400.22Z"/></g><g id="path39736-3"><path class="cls-1" d="M658.72,548.81c-29.4,0-52.56-11.55-66.44-20.87a4.85,4.85,0,0,1,5.4-8.06c20.3,13.62,62.16,32.43,114.49,5.42l83-42.81a4.85,4.85,0,0,1,4.45,8.62l-83,42.81C695.57,544.79,676.06,548.81,658.72,548.81Z"/></g><g id="path39738-2"><path class="cls-1" d="M639.39,543.65a67.73,67.73,0,0,1-34-9.33,4.85,4.85,0,0,1,4.91-8.37c9.68,5.67,29.65,13.5,54.66,2.23L706,509.68a4.85,4.85,0,1,1,4,8.84L668.93,537A71.46,71.46,0,0,1,639.39,543.65Z"/></g><g id="path39740-2"><path class="cls-1" d="M615.94,533.84a45.75,45.75,0,0,1-17.08-3.25,4.85,4.85,0,1,1,3.65-9,37.45,37.45,0,0,0,25.27.7l19.82-6.19a4.85,4.85,0,1,1,2.89,9.26l-19.82,6.19A49.54,49.54,0,0,1,615.94,533.84Z"/></g><g id="path39742-4"><path class="cls-1" d="M592.87,524c-4.91,0-9.48-1.16-12.24-3.28a4.85,4.85,0,1,1,5.9-7.69c1,.72,5.44,2,10.93.78l11.23-2.44a4.85,4.85,0,1,1,2.06,9.48l-11.23,2.44A31.39,31.39,0,0,1,592.87,524Z"/></g></g></g></svg>
